<mxfile host="app.diagrams.net" modified="2023-12-01T09:08:11.689Z" agent="Mozilla/5.0 (Windows NT 10.0; Win64; x64) AppleWebKit/537.36 (KHTML, like Gecko) Chrome/119.0.0.0 Safari/537.36 Edg/119.0.0.0" etag="dWfo8jwfish8vfkH6QyB" version="22.1.5" type="github">
  <diagram name="第 1 页" id="v6oY52smnRcEkZ9FU9oF">
    <mxGraphModel dx="1167" dy="648" grid="1" gridSize="10" guides="1" tooltips="1" connect="1" arrows="1" fold="1" page="1" pageScale="1" pageWidth="850" pageHeight="1100" math="0" shadow="0">
      <root>
        <mxCell id="0" />
        <mxCell id="1" parent="0" />
        <mxCell id="ijFXuitJDZCYeXIuiVJV-2" value="CAT1" style="shape=table;startSize=30;container=1;collapsible=0;childLayout=tableLayout;strokeColor=#666666;fontSize=16;fontStyle=1;fillColor=#f5f5f5;fontColor=#333333;" vertex="1" parent="1">
          <mxGeometry x="40" y="70" width="460" height="598" as="geometry" />
        </mxCell>
        <mxCell id="ijFXuitJDZCYeXIuiVJV-35" value="" style="shape=tableRow;horizontal=0;startSize=0;swimlaneHead=0;swimlaneBody=0;strokeColor=inherit;top=0;left=0;bottom=0;right=0;collapsible=0;dropTarget=0;fillColor=none;points=[[0,0.5],[1,0.5]];portConstraint=eastwest;fontSize=16;" vertex="1" parent="ijFXuitJDZCYeXIuiVJV-2">
          <mxGeometry y="30" width="460" height="63" as="geometry" />
        </mxCell>
        <mxCell id="ijFXuitJDZCYeXIuiVJV-36" value="SEQ" style="shape=partialRectangle;html=1;whiteSpace=wrap;connectable=0;strokeColor=#666666;overflow=hidden;fillColor=#f5f5f5;top=0;left=0;bottom=0;right=0;pointerEvents=1;fontSize=16;fontStyle=1;fontColor=#333333;" vertex="1" parent="ijFXuitJDZCYeXIuiVJV-35">
          <mxGeometry width="180" height="63" as="geometry">
            <mxRectangle width="180" height="63" as="alternateBounds" />
          </mxGeometry>
        </mxCell>
        <mxCell id="ijFXuitJDZCYeXIuiVJV-37" value="执行完成时间戳" style="shape=partialRectangle;html=1;whiteSpace=wrap;connectable=0;strokeColor=#666666;overflow=hidden;fillColor=#f5f5f5;top=0;left=0;bottom=0;right=0;pointerEvents=1;fontSize=16;fontStyle=1;fontColor=#333333;" vertex="1" parent="ijFXuitJDZCYeXIuiVJV-35">
          <mxGeometry x="180" width="90" height="63" as="geometry">
            <mxRectangle width="90" height="63" as="alternateBounds" />
          </mxGeometry>
        </mxCell>
        <mxCell id="ijFXuitJDZCYeXIuiVJV-38" value="内容" style="shape=partialRectangle;html=1;whiteSpace=wrap;connectable=0;strokeColor=#666666;overflow=hidden;fillColor=#f5f5f5;top=0;left=0;bottom=0;right=0;pointerEvents=1;fontSize=16;fontStyle=1;fontColor=#333333;" vertex="1" parent="ijFXuitJDZCYeXIuiVJV-35">
          <mxGeometry x="270" width="190" height="63" as="geometry">
            <mxRectangle width="190" height="63" as="alternateBounds" />
          </mxGeometry>
        </mxCell>
        <mxCell id="ijFXuitJDZCYeXIuiVJV-3" value="" style="shape=tableRow;horizontal=0;startSize=0;swimlaneHead=0;swimlaneBody=0;strokeColor=inherit;top=0;left=0;bottom=0;right=0;collapsible=0;dropTarget=0;fillColor=none;points=[[0,0.5],[1,0.5]];portConstraint=eastwest;fontSize=16;" vertex="1" parent="ijFXuitJDZCYeXIuiVJV-2">
          <mxGeometry y="93" width="460" height="63" as="geometry" />
        </mxCell>
        <mxCell id="ijFXuitJDZCYeXIuiVJV-4" value="GLBSDL_SEQ_0" style="shape=partialRectangle;html=1;whiteSpace=wrap;connectable=0;strokeColor=#6c8ebf;overflow=hidden;fillColor=#dae8fc;top=0;left=0;bottom=0;right=0;pointerEvents=1;fontSize=16;" vertex="1" parent="ijFXuitJDZCYeXIuiVJV-3">
          <mxGeometry width="180" height="63" as="geometry">
            <mxRectangle width="180" height="63" as="alternateBounds" />
          </mxGeometry>
        </mxCell>
        <mxCell id="ijFXuitJDZCYeXIuiVJV-5" value="30" style="shape=partialRectangle;html=1;whiteSpace=wrap;connectable=0;strokeColor=#6c8ebf;overflow=hidden;fillColor=#dae8fc;top=0;left=0;bottom=0;right=0;pointerEvents=1;fontSize=16;" vertex="1" parent="ijFXuitJDZCYeXIuiVJV-3">
          <mxGeometry x="180" width="90" height="63" as="geometry">
            <mxRectangle width="90" height="63" as="alternateBounds" />
          </mxGeometry>
        </mxCell>
        <mxCell id="ijFXuitJDZCYeXIuiVJV-6" value="Transmit SPI_SEQ0" style="shape=partialRectangle;html=1;whiteSpace=wrap;connectable=0;strokeColor=#6c8ebf;overflow=hidden;fillColor=#dae8fc;top=0;left=0;bottom=0;right=0;pointerEvents=1;fontSize=16;" vertex="1" parent="ijFXuitJDZCYeXIuiVJV-3">
          <mxGeometry x="270" width="190" height="63" as="geometry">
            <mxRectangle width="190" height="63" as="alternateBounds" />
          </mxGeometry>
        </mxCell>
        <mxCell id="ijFXuitJDZCYeXIuiVJV-7" value="" style="shape=tableRow;horizontal=0;startSize=0;swimlaneHead=0;swimlaneBody=0;strokeColor=inherit;top=0;left=0;bottom=0;right=0;collapsible=0;dropTarget=0;fillColor=none;points=[[0,0.5],[1,0.5]];portConstraint=eastwest;fontSize=16;" vertex="1" parent="ijFXuitJDZCYeXIuiVJV-2">
          <mxGeometry y="156" width="460" height="64" as="geometry" />
        </mxCell>
        <mxCell id="ijFXuitJDZCYeXIuiVJV-8" value="GLBSDL_SEQ_1" style="shape=partialRectangle;html=1;whiteSpace=wrap;connectable=0;strokeColor=#6c8ebf;overflow=hidden;fillColor=#dae8fc;top=0;left=0;bottom=0;right=0;pointerEvents=1;fontSize=16;" vertex="1" parent="ijFXuitJDZCYeXIuiVJV-7">
          <mxGeometry width="180" height="64" as="geometry">
            <mxRectangle width="180" height="64" as="alternateBounds" />
          </mxGeometry>
        </mxCell>
        <mxCell id="ijFXuitJDZCYeXIuiVJV-9" value="250" style="shape=partialRectangle;html=1;whiteSpace=wrap;connectable=0;strokeColor=#6c8ebf;overflow=hidden;fillColor=#dae8fc;top=0;left=0;bottom=0;right=0;pointerEvents=1;fontSize=16;" vertex="1" parent="ijFXuitJDZCYeXIuiVJV-7">
          <mxGeometry x="180" width="90" height="64" as="geometry">
            <mxRectangle width="90" height="64" as="alternateBounds" />
          </mxGeometry>
        </mxCell>
        <mxCell id="ijFXuitJDZCYeXIuiVJV-10" value="Transmit SPI_SEQ1" style="shape=partialRectangle;html=1;whiteSpace=wrap;connectable=0;strokeColor=#6c8ebf;overflow=hidden;fillColor=#dae8fc;top=0;left=0;bottom=0;right=0;pointerEvents=1;fontSize=16;" vertex="1" parent="ijFXuitJDZCYeXIuiVJV-7">
          <mxGeometry x="270" width="190" height="64" as="geometry">
            <mxRectangle width="190" height="64" as="alternateBounds" />
          </mxGeometry>
        </mxCell>
        <mxCell id="ijFXuitJDZCYeXIuiVJV-11" value="" style="shape=tableRow;horizontal=0;startSize=0;swimlaneHead=0;swimlaneBody=0;strokeColor=inherit;top=0;left=0;bottom=0;right=0;collapsible=0;dropTarget=0;fillColor=none;points=[[0,0.5],[1,0.5]];portConstraint=eastwest;fontSize=16;" vertex="1" parent="ijFXuitJDZCYeXIuiVJV-2">
          <mxGeometry y="220" width="460" height="63" as="geometry" />
        </mxCell>
        <mxCell id="ijFXuitJDZCYeXIuiVJV-12" value="GLBSDL_SEQ_2" style="shape=partialRectangle;html=1;whiteSpace=wrap;connectable=0;strokeColor=#6c8ebf;overflow=hidden;fillColor=#dae8fc;top=0;left=0;bottom=0;right=0;pointerEvents=1;fontSize=16;" vertex="1" parent="ijFXuitJDZCYeXIuiVJV-11">
          <mxGeometry width="180" height="63" as="geometry">
            <mxRectangle width="180" height="63" as="alternateBounds" />
          </mxGeometry>
        </mxCell>
        <mxCell id="ijFXuitJDZCYeXIuiVJV-13" value="280" style="shape=partialRectangle;html=1;whiteSpace=wrap;connectable=0;strokeColor=#6c8ebf;overflow=hidden;fillColor=#dae8fc;top=0;left=0;bottom=0;right=0;pointerEvents=1;fontSize=16;" vertex="1" parent="ijFXuitJDZCYeXIuiVJV-11">
          <mxGeometry x="180" width="90" height="63" as="geometry">
            <mxRectangle width="90" height="63" as="alternateBounds" />
          </mxGeometry>
        </mxCell>
        <mxCell id="ijFXuitJDZCYeXIuiVJV-14" value="Transmit SPI_SEQ2" style="shape=partialRectangle;html=1;whiteSpace=wrap;connectable=0;strokeColor=#6c8ebf;overflow=hidden;fillColor=#dae8fc;top=0;left=0;bottom=0;right=0;pointerEvents=1;fontSize=16;" vertex="1" parent="ijFXuitJDZCYeXIuiVJV-11">
          <mxGeometry x="270" width="190" height="63" as="geometry">
            <mxRectangle width="190" height="63" as="alternateBounds" />
          </mxGeometry>
        </mxCell>
        <mxCell id="ijFXuitJDZCYeXIuiVJV-15" value="" style="shape=tableRow;horizontal=0;startSize=0;swimlaneHead=0;swimlaneBody=0;strokeColor=inherit;top=0;left=0;bottom=0;right=0;collapsible=0;dropTarget=0;fillColor=none;points=[[0,0.5],[1,0.5]];portConstraint=eastwest;fontSize=16;" vertex="1" parent="ijFXuitJDZCYeXIuiVJV-2">
          <mxGeometry y="283" width="460" height="63" as="geometry" />
        </mxCell>
        <mxCell id="ijFXuitJDZCYeXIuiVJV-16" value="GLBSDL_SEQ_3" style="shape=partialRectangle;html=1;whiteSpace=wrap;connectable=0;strokeColor=#6c8ebf;overflow=hidden;fillColor=#dae8fc;top=0;left=0;bottom=0;right=0;pointerEvents=1;fontSize=16;" vertex="1" parent="ijFXuitJDZCYeXIuiVJV-15">
          <mxGeometry width="180" height="63" as="geometry">
            <mxRectangle width="180" height="63" as="alternateBounds" />
          </mxGeometry>
        </mxCell>
        <mxCell id="ijFXuitJDZCYeXIuiVJV-17" value="500" style="shape=partialRectangle;html=1;whiteSpace=wrap;connectable=0;strokeColor=#6c8ebf;overflow=hidden;fillColor=#dae8fc;top=0;left=0;bottom=0;right=0;pointerEvents=1;fontSize=16;" vertex="1" parent="ijFXuitJDZCYeXIuiVJV-15">
          <mxGeometry x="180" width="90" height="63" as="geometry">
            <mxRectangle width="90" height="63" as="alternateBounds" />
          </mxGeometry>
        </mxCell>
        <mxCell id="ijFXuitJDZCYeXIuiVJV-18" value="Transmit SPI_SEQ3" style="shape=partialRectangle;html=1;whiteSpace=wrap;connectable=0;strokeColor=#6c8ebf;overflow=hidden;fillColor=#dae8fc;top=0;left=0;bottom=0;right=0;pointerEvents=1;fontSize=16;" vertex="1" parent="ijFXuitJDZCYeXIuiVJV-15">
          <mxGeometry x="270" width="190" height="63" as="geometry">
            <mxRectangle width="190" height="63" as="alternateBounds" />
          </mxGeometry>
        </mxCell>
        <mxCell id="ijFXuitJDZCYeXIuiVJV-19" value="" style="shape=tableRow;horizontal=0;startSize=0;swimlaneHead=0;swimlaneBody=0;strokeColor=inherit;top=0;left=0;bottom=0;right=0;collapsible=0;dropTarget=0;fillColor=none;points=[[0,0.5],[1,0.5]];portConstraint=eastwest;fontSize=16;" vertex="1" parent="ijFXuitJDZCYeXIuiVJV-2">
          <mxGeometry y="346" width="460" height="63" as="geometry" />
        </mxCell>
        <mxCell id="ijFXuitJDZCYeXIuiVJV-20" value="GLBSDL_SEQ_4" style="shape=partialRectangle;html=1;whiteSpace=wrap;connectable=0;strokeColor=#d79b00;overflow=hidden;fillColor=#ffe6cc;top=0;left=0;bottom=0;right=0;pointerEvents=1;fontSize=16;" vertex="1" parent="ijFXuitJDZCYeXIuiVJV-19">
          <mxGeometry width="180" height="63" as="geometry">
            <mxRectangle width="180" height="63" as="alternateBounds" />
          </mxGeometry>
        </mxCell>
        <mxCell id="ijFXuitJDZCYeXIuiVJV-21" value="530" style="shape=partialRectangle;html=1;whiteSpace=wrap;connectable=0;strokeColor=#d79b00;overflow=hidden;fillColor=#ffe6cc;top=0;left=0;bottom=0;right=0;pointerEvents=1;fontSize=16;" vertex="1" parent="ijFXuitJDZCYeXIuiVJV-19">
          <mxGeometry x="180" width="90" height="63" as="geometry">
            <mxRectangle width="90" height="63" as="alternateBounds" />
          </mxGeometry>
        </mxCell>
        <mxCell id="ijFXuitJDZCYeXIuiVJV-22" value="Transmit SPI_SEQ4" style="shape=partialRectangle;html=1;whiteSpace=wrap;connectable=0;strokeColor=#d79b00;overflow=hidden;fillColor=#ffe6cc;top=0;left=0;bottom=0;right=0;pointerEvents=1;fontSize=16;" vertex="1" parent="ijFXuitJDZCYeXIuiVJV-19">
          <mxGeometry x="270" width="190" height="63" as="geometry">
            <mxRectangle width="190" height="63" as="alternateBounds" />
          </mxGeometry>
        </mxCell>
        <mxCell id="ijFXuitJDZCYeXIuiVJV-23" value="" style="shape=tableRow;horizontal=0;startSize=0;swimlaneHead=0;swimlaneBody=0;strokeColor=inherit;top=0;left=0;bottom=0;right=0;collapsible=0;dropTarget=0;fillColor=none;points=[[0,0.5],[1,0.5]];portConstraint=eastwest;fontSize=16;" vertex="1" parent="ijFXuitJDZCYeXIuiVJV-2">
          <mxGeometry y="409" width="460" height="63" as="geometry" />
        </mxCell>
        <mxCell id="ijFXuitJDZCYeXIuiVJV-24" value="GLBSDL_SEQ_5" style="shape=partialRectangle;html=1;whiteSpace=wrap;connectable=0;strokeColor=#d79b00;overflow=hidden;fillColor=#ffe6cc;top=0;left=0;bottom=0;right=0;pointerEvents=1;fontSize=16;" vertex="1" parent="ijFXuitJDZCYeXIuiVJV-23">
          <mxGeometry width="180" height="63" as="geometry">
            <mxRectangle width="180" height="63" as="alternateBounds" />
          </mxGeometry>
        </mxCell>
        <mxCell id="ijFXuitJDZCYeXIuiVJV-25" value="750" style="shape=partialRectangle;html=1;whiteSpace=wrap;connectable=0;strokeColor=#d79b00;overflow=hidden;fillColor=#ffe6cc;top=0;left=0;bottom=0;right=0;pointerEvents=1;fontSize=16;" vertex="1" parent="ijFXuitJDZCYeXIuiVJV-23">
          <mxGeometry x="180" width="90" height="63" as="geometry">
            <mxRectangle width="90" height="63" as="alternateBounds" />
          </mxGeometry>
        </mxCell>
        <mxCell id="ijFXuitJDZCYeXIuiVJV-26" value="Transmit SPI_SEQ5" style="shape=partialRectangle;html=1;whiteSpace=wrap;connectable=0;strokeColor=#d79b00;overflow=hidden;fillColor=#ffe6cc;top=0;left=0;bottom=0;right=0;pointerEvents=1;fontSize=16;" vertex="1" parent="ijFXuitJDZCYeXIuiVJV-23">
          <mxGeometry x="270" width="190" height="63" as="geometry">
            <mxRectangle width="190" height="63" as="alternateBounds" />
          </mxGeometry>
        </mxCell>
        <mxCell id="ijFXuitJDZCYeXIuiVJV-27" value="" style="shape=tableRow;horizontal=0;startSize=0;swimlaneHead=0;swimlaneBody=0;strokeColor=inherit;top=0;left=0;bottom=0;right=0;collapsible=0;dropTarget=0;fillColor=none;points=[[0,0.5],[1,0.5]];portConstraint=eastwest;fontSize=16;" vertex="1" parent="ijFXuitJDZCYeXIuiVJV-2">
          <mxGeometry y="472" width="460" height="63" as="geometry" />
        </mxCell>
        <mxCell id="ijFXuitJDZCYeXIuiVJV-28" value="GLBSDL_SEQ_6" style="shape=partialRectangle;html=1;whiteSpace=wrap;connectable=0;strokeColor=#d79b00;overflow=hidden;fillColor=#ffe6cc;top=0;left=0;bottom=0;right=0;pointerEvents=1;fontSize=16;" vertex="1" parent="ijFXuitJDZCYeXIuiVJV-27">
          <mxGeometry width="180" height="63" as="geometry">
            <mxRectangle width="180" height="63" as="alternateBounds" />
          </mxGeometry>
        </mxCell>
        <mxCell id="ijFXuitJDZCYeXIuiVJV-29" value="780" style="shape=partialRectangle;html=1;whiteSpace=wrap;connectable=0;strokeColor=#d79b00;overflow=hidden;fillColor=#ffe6cc;top=0;left=0;bottom=0;right=0;pointerEvents=1;fontSize=16;" vertex="1" parent="ijFXuitJDZCYeXIuiVJV-27">
          <mxGeometry x="180" width="90" height="63" as="geometry">
            <mxRectangle width="90" height="63" as="alternateBounds" />
          </mxGeometry>
        </mxCell>
        <mxCell id="ijFXuitJDZCYeXIuiVJV-30" value="Transmit SPI_SEQ6" style="shape=partialRectangle;html=1;whiteSpace=wrap;connectable=0;strokeColor=#d79b00;overflow=hidden;fillColor=#ffe6cc;top=0;left=0;bottom=0;right=0;pointerEvents=1;fontSize=16;" vertex="1" parent="ijFXuitJDZCYeXIuiVJV-27">
          <mxGeometry x="270" width="190" height="63" as="geometry">
            <mxRectangle width="190" height="63" as="alternateBounds" />
          </mxGeometry>
        </mxCell>
        <mxCell id="ijFXuitJDZCYeXIuiVJV-31" value="" style="shape=tableRow;horizontal=0;startSize=0;swimlaneHead=0;swimlaneBody=0;strokeColor=inherit;top=0;left=0;bottom=0;right=0;collapsible=0;dropTarget=0;fillColor=none;points=[[0,0.5],[1,0.5]];portConstraint=eastwest;fontSize=16;" vertex="1" parent="ijFXuitJDZCYeXIuiVJV-2">
          <mxGeometry y="535" width="460" height="63" as="geometry" />
        </mxCell>
        <mxCell id="ijFXuitJDZCYeXIuiVJV-32" value="GLBSDL_SEQ_7" style="shape=partialRectangle;html=1;whiteSpace=wrap;connectable=0;strokeColor=#d79b00;overflow=hidden;fillColor=#ffe6cc;top=0;left=0;bottom=0;right=0;pointerEvents=1;fontSize=16;" vertex="1" parent="ijFXuitJDZCYeXIuiVJV-31">
          <mxGeometry width="180" height="63" as="geometry">
            <mxRectangle width="180" height="63" as="alternateBounds" />
          </mxGeometry>
        </mxCell>
        <mxCell id="ijFXuitJDZCYeXIuiVJV-33" value="1000" style="shape=partialRectangle;html=1;whiteSpace=wrap;connectable=0;strokeColor=#d79b00;overflow=hidden;fillColor=#ffe6cc;top=0;left=0;bottom=0;right=0;pointerEvents=1;fontSize=16;" vertex="1" parent="ijFXuitJDZCYeXIuiVJV-31">
          <mxGeometry x="180" width="90" height="63" as="geometry">
            <mxRectangle width="90" height="63" as="alternateBounds" />
          </mxGeometry>
        </mxCell>
        <mxCell id="ijFXuitJDZCYeXIuiVJV-34" value="Transmit SPI_SEQ7" style="shape=partialRectangle;html=1;whiteSpace=wrap;connectable=0;strokeColor=#d79b00;overflow=hidden;fillColor=#ffe6cc;top=0;left=0;bottom=0;right=0;pointerEvents=1;fontSize=16;" vertex="1" parent="ijFXuitJDZCYeXIuiVJV-31">
          <mxGeometry x="270" width="190" height="63" as="geometry">
            <mxRectangle width="190" height="63" as="alternateBounds" />
          </mxGeometry>
        </mxCell>
        <mxCell id="ijFXuitJDZCYeXIuiVJV-133" value="DcsMgr_ExecuteSequencer" style="shape=table;startSize=30;container=1;collapsible=0;childLayout=tableLayout;fixedRows=1;rowLines=0;fontStyle=0;strokeColor=#666666;fontSize=16;fillColor=#f5f5f5;fontColor=#333333;" vertex="1" parent="1">
          <mxGeometry x="40" y="710" width="310" height="150" as="geometry" />
        </mxCell>
        <mxCell id="ijFXuitJDZCYeXIuiVJV-134" value="" style="shape=tableRow;horizontal=0;startSize=0;swimlaneHead=0;swimlaneBody=0;top=0;left=0;bottom=0;right=0;collapsible=0;dropTarget=0;fillColor=none;points=[[0,0.5],[1,0.5]];portConstraint=eastwest;strokeColor=inherit;fontSize=16;" vertex="1" parent="ijFXuitJDZCYeXIuiVJV-133">
          <mxGeometry y="30" width="310" height="30" as="geometry" />
        </mxCell>
        <mxCell id="ijFXuitJDZCYeXIuiVJV-135" value="1" style="shape=partialRectangle;html=1;whiteSpace=wrap;connectable=0;fillColor=#f5f5f5;top=0;left=0;bottom=0;right=0;overflow=hidden;pointerEvents=1;strokeColor=#666666;fontSize=16;fontColor=#333333;" vertex="1" parent="ijFXuitJDZCYeXIuiVJV-134">
          <mxGeometry width="69" height="30" as="geometry">
            <mxRectangle width="69" height="30" as="alternateBounds" />
          </mxGeometry>
        </mxCell>
        <mxCell id="ijFXuitJDZCYeXIuiVJV-136" value="glbsdl_Ep0" style="shape=partialRectangle;html=1;whiteSpace=wrap;connectable=0;fillColor=#dae8fc;top=0;left=0;bottom=0;right=0;align=left;spacingLeft=6;overflow=hidden;strokeColor=#6c8ebf;fontSize=16;" vertex="1" parent="ijFXuitJDZCYeXIuiVJV-134">
          <mxGeometry x="69" width="241" height="30" as="geometry">
            <mxRectangle width="241" height="30" as="alternateBounds" />
          </mxGeometry>
        </mxCell>
        <mxCell id="ijFXuitJDZCYeXIuiVJV-137" value="" style="shape=tableRow;horizontal=0;startSize=0;swimlaneHead=0;swimlaneBody=0;top=0;left=0;bottom=0;right=0;collapsible=0;dropTarget=0;fillColor=none;points=[[0,0.5],[1,0.5]];portConstraint=eastwest;strokeColor=inherit;fontSize=16;" vertex="1" parent="ijFXuitJDZCYeXIuiVJV-133">
          <mxGeometry y="60" width="310" height="30" as="geometry" />
        </mxCell>
        <mxCell id="ijFXuitJDZCYeXIuiVJV-138" value="2" style="shape=partialRectangle;html=1;whiteSpace=wrap;connectable=0;fillColor=#f5f5f5;top=0;left=0;bottom=0;right=0;overflow=hidden;strokeColor=#666666;fontSize=16;fontColor=#333333;" vertex="1" parent="ijFXuitJDZCYeXIuiVJV-137">
          <mxGeometry width="69" height="30" as="geometry">
            <mxRectangle width="69" height="30" as="alternateBounds" />
          </mxGeometry>
        </mxCell>
        <mxCell id="ijFXuitJDZCYeXIuiVJV-139" value="glbsdl_Ep2" style="shape=partialRectangle;html=1;whiteSpace=wrap;connectable=0;fillColor=#ffe6cc;top=0;left=0;bottom=0;right=0;align=left;spacingLeft=6;overflow=hidden;strokeColor=#d79b00;fontSize=16;" vertex="1" parent="ijFXuitJDZCYeXIuiVJV-137">
          <mxGeometry x="69" width="241" height="30" as="geometry">
            <mxRectangle width="241" height="30" as="alternateBounds" />
          </mxGeometry>
        </mxCell>
        <mxCell id="ijFXuitJDZCYeXIuiVJV-140" value="" style="shape=tableRow;horizontal=0;startSize=0;swimlaneHead=0;swimlaneBody=0;top=0;left=0;bottom=0;right=0;collapsible=0;dropTarget=0;fillColor=none;points=[[0,0.5],[1,0.5]];portConstraint=eastwest;strokeColor=inherit;fontSize=16;" vertex="1" parent="ijFXuitJDZCYeXIuiVJV-133">
          <mxGeometry y="90" width="310" height="30" as="geometry" />
        </mxCell>
        <mxCell id="ijFXuitJDZCYeXIuiVJV-141" value="3" style="shape=partialRectangle;html=1;whiteSpace=wrap;connectable=0;fillColor=#f5f5f5;top=0;left=0;bottom=0;right=0;overflow=hidden;strokeColor=#666666;fontSize=16;fontColor=#333333;" vertex="1" parent="ijFXuitJDZCYeXIuiVJV-140">
          <mxGeometry width="69" height="30" as="geometry">
            <mxRectangle width="69" height="30" as="alternateBounds" />
          </mxGeometry>
        </mxCell>
        <mxCell id="ijFXuitJDZCYeXIuiVJV-142" value="glbsdl_Ep4" style="shape=partialRectangle;html=1;whiteSpace=wrap;connectable=0;fillColor=#dae8fc;top=0;left=0;bottom=0;right=0;align=left;spacingLeft=6;overflow=hidden;strokeColor=#6c8ebf;fontSize=16;" vertex="1" parent="ijFXuitJDZCYeXIuiVJV-140">
          <mxGeometry x="69" width="241" height="30" as="geometry">
            <mxRectangle width="241" height="30" as="alternateBounds" />
          </mxGeometry>
        </mxCell>
        <mxCell id="ijFXuitJDZCYeXIuiVJV-144" value="" style="shape=tableRow;horizontal=0;startSize=0;swimlaneHead=0;swimlaneBody=0;top=0;left=0;bottom=0;right=0;collapsible=0;dropTarget=0;fillColor=none;points=[[0,0.5],[1,0.5]];portConstraint=eastwest;strokeColor=inherit;fontSize=16;" vertex="1" parent="ijFXuitJDZCYeXIuiVJV-133">
          <mxGeometry y="120" width="310" height="30" as="geometry" />
        </mxCell>
        <mxCell id="ijFXuitJDZCYeXIuiVJV-145" value="4" style="shape=partialRectangle;html=1;whiteSpace=wrap;connectable=0;fillColor=#f5f5f5;top=0;left=0;bottom=0;right=0;overflow=hidden;strokeColor=#666666;fontSize=16;fontColor=#333333;" vertex="1" parent="ijFXuitJDZCYeXIuiVJV-144">
          <mxGeometry width="69" height="30" as="geometry">
            <mxRectangle width="69" height="30" as="alternateBounds" />
          </mxGeometry>
        </mxCell>
        <mxCell id="ijFXuitJDZCYeXIuiVJV-146" value="glbsdl_Ep6" style="shape=partialRectangle;html=1;whiteSpace=wrap;connectable=0;fillColor=#ffe6cc;top=0;left=0;bottom=0;right=0;align=left;spacingLeft=6;overflow=hidden;strokeColor=#d79b00;fontSize=16;" vertex="1" parent="ijFXuitJDZCYeXIuiVJV-144">
          <mxGeometry x="69" width="241" height="30" as="geometry">
            <mxRectangle width="241" height="30" as="alternateBounds" />
          </mxGeometry>
        </mxCell>
        <mxCell id="ijFXuitJDZCYeXIuiVJV-147" value="LoopsMgr_ExecuteSequencer" style="shape=table;startSize=30;container=1;collapsible=0;childLayout=tableLayout;fixedRows=1;rowLines=0;fontStyle=0;strokeColor=#666666;fontSize=16;fillColor=#f5f5f5;fontColor=#333333;" vertex="1" parent="1">
          <mxGeometry x="40" y="880" width="310" height="150" as="geometry" />
        </mxCell>
        <mxCell id="ijFXuitJDZCYeXIuiVJV-148" value="" style="shape=tableRow;horizontal=0;startSize=0;swimlaneHead=0;swimlaneBody=0;top=0;left=0;bottom=0;right=0;collapsible=0;dropTarget=0;fillColor=none;points=[[0,0.5],[1,0.5]];portConstraint=eastwest;strokeColor=inherit;fontSize=16;" vertex="1" parent="ijFXuitJDZCYeXIuiVJV-147">
          <mxGeometry y="30" width="310" height="30" as="geometry" />
        </mxCell>
        <mxCell id="ijFXuitJDZCYeXIuiVJV-149" value="1" style="shape=partialRectangle;html=1;whiteSpace=wrap;connectable=0;fillColor=#f5f5f5;top=0;left=0;bottom=0;right=0;overflow=hidden;pointerEvents=1;strokeColor=#666666;fontSize=16;fontColor=#333333;" vertex="1" parent="ijFXuitJDZCYeXIuiVJV-148">
          <mxGeometry width="69" height="30" as="geometry">
            <mxRectangle width="69" height="30" as="alternateBounds" />
          </mxGeometry>
        </mxCell>
        <mxCell id="ijFXuitJDZCYeXIuiVJV-150" value="glbsdl_Ep0" style="shape=partialRectangle;html=1;whiteSpace=wrap;connectable=0;fillColor=#dae8fc;top=0;left=0;bottom=0;right=0;align=left;spacingLeft=6;overflow=hidden;strokeColor=#6c8ebf;fontSize=16;" vertex="1" parent="ijFXuitJDZCYeXIuiVJV-148">
          <mxGeometry x="69" width="241" height="30" as="geometry">
            <mxRectangle width="241" height="30" as="alternateBounds" />
          </mxGeometry>
        </mxCell>
        <mxCell id="ijFXuitJDZCYeXIuiVJV-151" value="" style="shape=tableRow;horizontal=0;startSize=0;swimlaneHead=0;swimlaneBody=0;top=0;left=0;bottom=0;right=0;collapsible=0;dropTarget=0;fillColor=none;points=[[0,0.5],[1,0.5]];portConstraint=eastwest;strokeColor=inherit;fontSize=16;" vertex="1" parent="ijFXuitJDZCYeXIuiVJV-147">
          <mxGeometry y="60" width="310" height="30" as="geometry" />
        </mxCell>
        <mxCell id="ijFXuitJDZCYeXIuiVJV-152" value="2" style="shape=partialRectangle;html=1;whiteSpace=wrap;connectable=0;fillColor=#f5f5f5;top=0;left=0;bottom=0;right=0;overflow=hidden;strokeColor=#666666;fontSize=16;fontColor=#333333;" vertex="1" parent="ijFXuitJDZCYeXIuiVJV-151">
          <mxGeometry width="69" height="30" as="geometry">
            <mxRectangle width="69" height="30" as="alternateBounds" />
          </mxGeometry>
        </mxCell>
        <mxCell id="ijFXuitJDZCYeXIuiVJV-153" value="glbsdl_Ep2" style="shape=partialRectangle;html=1;whiteSpace=wrap;connectable=0;fillColor=#ffe6cc;top=0;left=0;bottom=0;right=0;align=left;spacingLeft=6;overflow=hidden;strokeColor=#d79b00;fontSize=16;" vertex="1" parent="ijFXuitJDZCYeXIuiVJV-151">
          <mxGeometry x="69" width="241" height="30" as="geometry">
            <mxRectangle width="241" height="30" as="alternateBounds" />
          </mxGeometry>
        </mxCell>
        <mxCell id="ijFXuitJDZCYeXIuiVJV-154" value="" style="shape=tableRow;horizontal=0;startSize=0;swimlaneHead=0;swimlaneBody=0;top=0;left=0;bottom=0;right=0;collapsible=0;dropTarget=0;fillColor=none;points=[[0,0.5],[1,0.5]];portConstraint=eastwest;strokeColor=inherit;fontSize=16;" vertex="1" parent="ijFXuitJDZCYeXIuiVJV-147">
          <mxGeometry y="90" width="310" height="30" as="geometry" />
        </mxCell>
        <mxCell id="ijFXuitJDZCYeXIuiVJV-155" value="3" style="shape=partialRectangle;html=1;whiteSpace=wrap;connectable=0;fillColor=#f5f5f5;top=0;left=0;bottom=0;right=0;overflow=hidden;strokeColor=#666666;fontSize=16;fontColor=#333333;" vertex="1" parent="ijFXuitJDZCYeXIuiVJV-154">
          <mxGeometry width="69" height="30" as="geometry">
            <mxRectangle width="69" height="30" as="alternateBounds" />
          </mxGeometry>
        </mxCell>
        <mxCell id="ijFXuitJDZCYeXIuiVJV-156" value="glbsdl_Ep4" style="shape=partialRectangle;html=1;whiteSpace=wrap;connectable=0;fillColor=#dae8fc;top=0;left=0;bottom=0;right=0;align=left;spacingLeft=6;overflow=hidden;strokeColor=#6c8ebf;fontSize=16;" vertex="1" parent="ijFXuitJDZCYeXIuiVJV-154">
          <mxGeometry x="69" width="241" height="30" as="geometry">
            <mxRectangle width="241" height="30" as="alternateBounds" />
          </mxGeometry>
        </mxCell>
        <mxCell id="ijFXuitJDZCYeXIuiVJV-157" value="" style="shape=tableRow;horizontal=0;startSize=0;swimlaneHead=0;swimlaneBody=0;top=0;left=0;bottom=0;right=0;collapsible=0;dropTarget=0;fillColor=none;points=[[0,0.5],[1,0.5]];portConstraint=eastwest;strokeColor=inherit;fontSize=16;" vertex="1" parent="ijFXuitJDZCYeXIuiVJV-147">
          <mxGeometry y="120" width="310" height="30" as="geometry" />
        </mxCell>
        <mxCell id="ijFXuitJDZCYeXIuiVJV-158" value="4" style="shape=partialRectangle;html=1;whiteSpace=wrap;connectable=0;fillColor=#f5f5f5;top=0;left=0;bottom=0;right=0;overflow=hidden;strokeColor=#666666;fontSize=16;fontColor=#333333;" vertex="1" parent="ijFXuitJDZCYeXIuiVJV-157">
          <mxGeometry width="69" height="30" as="geometry">
            <mxRectangle width="69" height="30" as="alternateBounds" />
          </mxGeometry>
        </mxCell>
        <mxCell id="ijFXuitJDZCYeXIuiVJV-159" value="glbsdl_Ep6" style="shape=partialRectangle;html=1;whiteSpace=wrap;connectable=0;fillColor=#ffe6cc;top=0;left=0;bottom=0;right=0;align=left;spacingLeft=6;overflow=hidden;strokeColor=#d79b00;fontSize=16;" vertex="1" parent="ijFXuitJDZCYeXIuiVJV-157">
          <mxGeometry x="69" width="241" height="30" as="geometry">
            <mxRectangle width="241" height="30" as="alternateBounds" />
          </mxGeometry>
        </mxCell>
        <mxCell id="ijFXuitJDZCYeXIuiVJV-160" value="Adc_64_DataBuffering" style="shape=table;startSize=30;container=1;collapsible=0;childLayout=tableLayout;fixedRows=1;rowLines=0;fontStyle=0;strokeColor=#666666;fontSize=16;fillColor=#f5f5f5;fontColor=#333333;" vertex="1" parent="1">
          <mxGeometry x="40" y="1050" width="310" height="90" as="geometry" />
        </mxCell>
        <mxCell id="ijFXuitJDZCYeXIuiVJV-161" value="" style="shape=tableRow;horizontal=0;startSize=0;swimlaneHead=0;swimlaneBody=0;top=0;left=0;bottom=0;right=0;collapsible=0;dropTarget=0;fillColor=none;points=[[0,0.5],[1,0.5]];portConstraint=eastwest;strokeColor=inherit;fontSize=16;" vertex="1" parent="ijFXuitJDZCYeXIuiVJV-160">
          <mxGeometry y="30" width="310" height="30" as="geometry" />
        </mxCell>
        <mxCell id="ijFXuitJDZCYeXIuiVJV-162" value="1" style="shape=partialRectangle;html=1;whiteSpace=wrap;connectable=0;fillColor=#f5f5f5;top=0;left=0;bottom=0;right=0;overflow=hidden;pointerEvents=1;strokeColor=#666666;fontSize=16;fontColor=#333333;" vertex="1" parent="ijFXuitJDZCYeXIuiVJV-161">
          <mxGeometry width="69" height="30" as="geometry">
            <mxRectangle width="69" height="30" as="alternateBounds" />
          </mxGeometry>
        </mxCell>
        <mxCell id="ijFXuitJDZCYeXIuiVJV-163" value="glbsdl_Ep2" style="shape=partialRectangle;html=1;whiteSpace=wrap;connectable=0;fillColor=#ffe6cc;top=0;left=0;bottom=0;right=0;align=left;spacingLeft=6;overflow=hidden;strokeColor=#d79b00;fontSize=16;" vertex="1" parent="ijFXuitJDZCYeXIuiVJV-161">
          <mxGeometry x="69" width="241" height="30" as="geometry">
            <mxRectangle width="241" height="30" as="alternateBounds" />
          </mxGeometry>
        </mxCell>
        <mxCell id="ijFXuitJDZCYeXIuiVJV-164" value="" style="shape=tableRow;horizontal=0;startSize=0;swimlaneHead=0;swimlaneBody=0;top=0;left=0;bottom=0;right=0;collapsible=0;dropTarget=0;fillColor=none;points=[[0,0.5],[1,0.5]];portConstraint=eastwest;strokeColor=inherit;fontSize=16;" vertex="1" parent="ijFXuitJDZCYeXIuiVJV-160">
          <mxGeometry y="60" width="310" height="30" as="geometry" />
        </mxCell>
        <mxCell id="ijFXuitJDZCYeXIuiVJV-165" value="2" style="shape=partialRectangle;html=1;whiteSpace=wrap;connectable=0;fillColor=#f5f5f5;top=0;left=0;bottom=0;right=0;overflow=hidden;strokeColor=#666666;fontSize=16;fontColor=#333333;" vertex="1" parent="ijFXuitJDZCYeXIuiVJV-164">
          <mxGeometry width="69" height="30" as="geometry">
            <mxRectangle width="69" height="30" as="alternateBounds" />
          </mxGeometry>
        </mxCell>
        <mxCell id="ijFXuitJDZCYeXIuiVJV-166" value="glbsdl_Ep6" style="shape=partialRectangle;html=1;whiteSpace=wrap;connectable=0;fillColor=#ffe6cc;top=0;left=0;bottom=0;right=0;align=left;spacingLeft=6;overflow=hidden;strokeColor=#d79b00;fontSize=16;" vertex="1" parent="ijFXuitJDZCYeXIuiVJV-164">
          <mxGeometry x="69" width="241" height="30" as="geometry">
            <mxRectangle width="241" height="30" as="alternateBounds" />
          </mxGeometry>
        </mxCell>
        <mxCell id="ijFXuitJDZCYeXIuiVJV-173" value="Adc_64_AsyncConversion" style="shape=table;startSize=30;container=1;collapsible=0;childLayout=tableLayout;fixedRows=1;rowLines=0;fontStyle=0;strokeColor=#666666;fontSize=16;fillColor=#f5f5f5;fontColor=#333333;" vertex="1" parent="1">
          <mxGeometry x="40" y="1160" width="310" height="150" as="geometry" />
        </mxCell>
        <mxCell id="ijFXuitJDZCYeXIuiVJV-174" value="" style="shape=tableRow;horizontal=0;startSize=0;swimlaneHead=0;swimlaneBody=0;top=0;left=0;bottom=0;right=0;collapsible=0;dropTarget=0;fillColor=none;points=[[0,0.5],[1,0.5]];portConstraint=eastwest;strokeColor=inherit;fontSize=16;" vertex="1" parent="ijFXuitJDZCYeXIuiVJV-173">
          <mxGeometry y="30" width="310" height="30" as="geometry" />
        </mxCell>
        <mxCell id="ijFXuitJDZCYeXIuiVJV-175" value="1" style="shape=partialRectangle;html=1;whiteSpace=wrap;connectable=0;fillColor=#f5f5f5;top=0;left=0;bottom=0;right=0;overflow=hidden;pointerEvents=1;strokeColor=#666666;fontSize=16;fontColor=#333333;" vertex="1" parent="ijFXuitJDZCYeXIuiVJV-174">
          <mxGeometry width="69" height="30" as="geometry">
            <mxRectangle width="69" height="30" as="alternateBounds" />
          </mxGeometry>
        </mxCell>
        <mxCell id="ijFXuitJDZCYeXIuiVJV-176" value="glbsdl_Ep0" style="shape=partialRectangle;html=1;whiteSpace=wrap;connectable=0;fillColor=#dae8fc;top=0;left=0;bottom=0;right=0;align=left;spacingLeft=6;overflow=hidden;strokeColor=#6c8ebf;fontSize=16;" vertex="1" parent="ijFXuitJDZCYeXIuiVJV-174">
          <mxGeometry x="69" width="241" height="30" as="geometry">
            <mxRectangle width="241" height="30" as="alternateBounds" />
          </mxGeometry>
        </mxCell>
        <mxCell id="ijFXuitJDZCYeXIuiVJV-177" value="" style="shape=tableRow;horizontal=0;startSize=0;swimlaneHead=0;swimlaneBody=0;top=0;left=0;bottom=0;right=0;collapsible=0;dropTarget=0;fillColor=none;points=[[0,0.5],[1,0.5]];portConstraint=eastwest;strokeColor=inherit;fontSize=16;" vertex="1" parent="ijFXuitJDZCYeXIuiVJV-173">
          <mxGeometry y="60" width="310" height="30" as="geometry" />
        </mxCell>
        <mxCell id="ijFXuitJDZCYeXIuiVJV-178" value="2" style="shape=partialRectangle;html=1;whiteSpace=wrap;connectable=0;fillColor=#f5f5f5;top=0;left=0;bottom=0;right=0;overflow=hidden;strokeColor=#666666;fontSize=16;fontColor=#333333;" vertex="1" parent="ijFXuitJDZCYeXIuiVJV-177">
          <mxGeometry width="69" height="30" as="geometry">
            <mxRectangle width="69" height="30" as="alternateBounds" />
          </mxGeometry>
        </mxCell>
        <mxCell id="ijFXuitJDZCYeXIuiVJV-179" value="glbsdl_Ep2" style="shape=partialRectangle;html=1;whiteSpace=wrap;connectable=0;fillColor=#ffe6cc;top=0;left=0;bottom=0;right=0;align=left;spacingLeft=6;overflow=hidden;strokeColor=#d79b00;fontSize=16;" vertex="1" parent="ijFXuitJDZCYeXIuiVJV-177">
          <mxGeometry x="69" width="241" height="30" as="geometry">
            <mxRectangle width="241" height="30" as="alternateBounds" />
          </mxGeometry>
        </mxCell>
        <mxCell id="ijFXuitJDZCYeXIuiVJV-180" value="" style="shape=tableRow;horizontal=0;startSize=0;swimlaneHead=0;swimlaneBody=0;top=0;left=0;bottom=0;right=0;collapsible=0;dropTarget=0;fillColor=none;points=[[0,0.5],[1,0.5]];portConstraint=eastwest;strokeColor=inherit;fontSize=16;" vertex="1" parent="ijFXuitJDZCYeXIuiVJV-173">
          <mxGeometry y="90" width="310" height="30" as="geometry" />
        </mxCell>
        <mxCell id="ijFXuitJDZCYeXIuiVJV-181" value="3" style="shape=partialRectangle;html=1;whiteSpace=wrap;connectable=0;fillColor=#f5f5f5;top=0;left=0;bottom=0;right=0;overflow=hidden;strokeColor=#666666;fontSize=16;fontColor=#333333;" vertex="1" parent="ijFXuitJDZCYeXIuiVJV-180">
          <mxGeometry width="69" height="30" as="geometry">
            <mxRectangle width="69" height="30" as="alternateBounds" />
          </mxGeometry>
        </mxCell>
        <mxCell id="ijFXuitJDZCYeXIuiVJV-182" value="glbsdl_Ep4" style="shape=partialRectangle;html=1;whiteSpace=wrap;connectable=0;fillColor=#dae8fc;top=0;left=0;bottom=0;right=0;align=left;spacingLeft=6;overflow=hidden;strokeColor=#6c8ebf;fontSize=16;" vertex="1" parent="ijFXuitJDZCYeXIuiVJV-180">
          <mxGeometry x="69" width="241" height="30" as="geometry">
            <mxRectangle width="241" height="30" as="alternateBounds" />
          </mxGeometry>
        </mxCell>
        <mxCell id="ijFXuitJDZCYeXIuiVJV-183" value="" style="shape=tableRow;horizontal=0;startSize=0;swimlaneHead=0;swimlaneBody=0;top=0;left=0;bottom=0;right=0;collapsible=0;dropTarget=0;fillColor=none;points=[[0,0.5],[1,0.5]];portConstraint=eastwest;strokeColor=inherit;fontSize=16;" vertex="1" parent="ijFXuitJDZCYeXIuiVJV-173">
          <mxGeometry y="120" width="310" height="30" as="geometry" />
        </mxCell>
        <mxCell id="ijFXuitJDZCYeXIuiVJV-184" value="4" style="shape=partialRectangle;html=1;whiteSpace=wrap;connectable=0;fillColor=#f5f5f5;top=0;left=0;bottom=0;right=0;overflow=hidden;strokeColor=#666666;fontSize=16;fontColor=#333333;" vertex="1" parent="ijFXuitJDZCYeXIuiVJV-183">
          <mxGeometry width="69" height="30" as="geometry">
            <mxRectangle width="69" height="30" as="alternateBounds" />
          </mxGeometry>
        </mxCell>
        <mxCell id="ijFXuitJDZCYeXIuiVJV-185" value="glbsdl_Ep6" style="shape=partialRectangle;html=1;whiteSpace=wrap;connectable=0;fillColor=#ffe6cc;top=0;left=0;bottom=0;right=0;align=left;spacingLeft=6;overflow=hidden;strokeColor=#d79b00;fontSize=16;" vertex="1" parent="ijFXuitJDZCYeXIuiVJV-183">
          <mxGeometry x="69" width="241" height="30" as="geometry">
            <mxRectangle width="241" height="30" as="alternateBounds" />
          </mxGeometry>
        </mxCell>
        <mxCell id="ijFXuitJDZCYeXIuiVJV-199" value="Adc_64_DataUnBuffering" style="shape=table;startSize=30;container=1;collapsible=0;childLayout=tableLayout;fixedRows=1;rowLines=0;fontStyle=0;strokeColor=#666666;fontSize=16;fillColor=#f5f5f5;fontColor=#333333;" vertex="1" parent="1">
          <mxGeometry x="370" y="1050" width="310" height="90" as="geometry" />
        </mxCell>
        <mxCell id="ijFXuitJDZCYeXIuiVJV-200" value="" style="shape=tableRow;horizontal=0;startSize=0;swimlaneHead=0;swimlaneBody=0;top=0;left=0;bottom=0;right=0;collapsible=0;dropTarget=0;fillColor=none;points=[[0,0.5],[1,0.5]];portConstraint=eastwest;strokeColor=inherit;fontSize=16;" vertex="1" parent="ijFXuitJDZCYeXIuiVJV-199">
          <mxGeometry y="30" width="310" height="30" as="geometry" />
        </mxCell>
        <mxCell id="ijFXuitJDZCYeXIuiVJV-201" value="1" style="shape=partialRectangle;html=1;whiteSpace=wrap;connectable=0;fillColor=#f5f5f5;top=0;left=0;bottom=0;right=0;overflow=hidden;pointerEvents=1;strokeColor=#666666;fontSize=16;fontColor=#333333;" vertex="1" parent="ijFXuitJDZCYeXIuiVJV-200">
          <mxGeometry width="69" height="30" as="geometry">
            <mxRectangle width="69" height="30" as="alternateBounds" />
          </mxGeometry>
        </mxCell>
        <mxCell id="ijFXuitJDZCYeXIuiVJV-202" value="glbsdl_Ep3" style="shape=partialRectangle;html=1;whiteSpace=wrap;connectable=0;fillColor=#d5e8d4;top=0;left=0;bottom=0;right=0;align=left;spacingLeft=6;overflow=hidden;strokeColor=#82b366;fontSize=16;" vertex="1" parent="ijFXuitJDZCYeXIuiVJV-200">
          <mxGeometry x="69" width="241" height="30" as="geometry">
            <mxRectangle width="241" height="30" as="alternateBounds" />
          </mxGeometry>
        </mxCell>
        <mxCell id="ijFXuitJDZCYeXIuiVJV-203" value="" style="shape=tableRow;horizontal=0;startSize=0;swimlaneHead=0;swimlaneBody=0;top=0;left=0;bottom=0;right=0;collapsible=0;dropTarget=0;fillColor=none;points=[[0,0.5],[1,0.5]];portConstraint=eastwest;strokeColor=inherit;fontSize=16;" vertex="1" parent="ijFXuitJDZCYeXIuiVJV-199">
          <mxGeometry y="60" width="310" height="30" as="geometry" />
        </mxCell>
        <mxCell id="ijFXuitJDZCYeXIuiVJV-204" value="2" style="shape=partialRectangle;html=1;whiteSpace=wrap;connectable=0;fillColor=#f5f5f5;top=0;left=0;bottom=0;right=0;overflow=hidden;strokeColor=#666666;fontSize=16;fontColor=#333333;" vertex="1" parent="ijFXuitJDZCYeXIuiVJV-203">
          <mxGeometry width="69" height="30" as="geometry">
            <mxRectangle width="69" height="30" as="alternateBounds" />
          </mxGeometry>
        </mxCell>
        <mxCell id="ijFXuitJDZCYeXIuiVJV-205" value="glbsdl_Ep7" style="shape=partialRectangle;html=1;whiteSpace=wrap;connectable=0;fillColor=#d5e8d4;top=0;left=0;bottom=0;right=0;align=left;spacingLeft=6;overflow=hidden;strokeColor=#82b366;fontSize=16;" vertex="1" parent="ijFXuitJDZCYeXIuiVJV-203">
          <mxGeometry x="69" width="241" height="30" as="geometry">
            <mxRectangle width="241" height="30" as="alternateBounds" />
          </mxGeometry>
        </mxCell>
        <mxCell id="ijFXuitJDZCYeXIuiVJV-206" value="glbsdl_RunOsTick" style="shape=table;startSize=30;container=1;collapsible=0;childLayout=tableLayout;fixedRows=1;rowLines=0;fontStyle=0;strokeColor=#666666;fontSize=16;fillColor=#f5f5f5;fontColor=#333333;" vertex="1" parent="1">
          <mxGeometry x="370" y="880" width="310" height="60" as="geometry" />
        </mxCell>
        <mxCell id="ijFXuitJDZCYeXIuiVJV-210" value="" style="shape=tableRow;horizontal=0;startSize=0;swimlaneHead=0;swimlaneBody=0;top=0;left=0;bottom=0;right=0;collapsible=0;dropTarget=0;fillColor=none;points=[[0,0.5],[1,0.5]];portConstraint=eastwest;strokeColor=inherit;fontSize=16;" vertex="1" parent="ijFXuitJDZCYeXIuiVJV-206">
          <mxGeometry y="30" width="310" height="30" as="geometry" />
        </mxCell>
        <mxCell id="ijFXuitJDZCYeXIuiVJV-211" value="1" style="shape=partialRectangle;html=1;whiteSpace=wrap;connectable=0;fillColor=#f5f5f5;top=0;left=0;bottom=0;right=0;overflow=hidden;strokeColor=#666666;fontSize=16;fontColor=#333333;" vertex="1" parent="ijFXuitJDZCYeXIuiVJV-210">
          <mxGeometry width="69" height="30" as="geometry">
            <mxRectangle width="69" height="30" as="alternateBounds" />
          </mxGeometry>
        </mxCell>
        <mxCell id="ijFXuitJDZCYeXIuiVJV-212" value="glbsdl_Ep7" style="shape=partialRectangle;html=1;whiteSpace=wrap;connectable=0;fillColor=#d5e8d4;top=0;left=0;bottom=0;right=0;align=left;spacingLeft=6;overflow=hidden;strokeColor=#82b366;fontSize=16;" vertex="1" parent="ijFXuitJDZCYeXIuiVJV-210">
          <mxGeometry x="69" width="241" height="30" as="geometry">
            <mxRectangle width="241" height="30" as="alternateBounds" />
          </mxGeometry>
        </mxCell>
        <mxCell id="ijFXuitJDZCYeXIuiVJV-213" value="PwrMgr_ExecuteSequencer" style="shape=table;startSize=30;container=1;collapsible=0;childLayout=tableLayout;fixedRows=1;rowLines=0;fontStyle=0;strokeColor=#666666;fontSize=16;fillColor=#f5f5f5;fontColor=#333333;" vertex="1" parent="1">
          <mxGeometry x="370" y="710" width="310" height="90" as="geometry" />
        </mxCell>
        <mxCell id="ijFXuitJDZCYeXIuiVJV-214" value="" style="shape=tableRow;horizontal=0;startSize=0;swimlaneHead=0;swimlaneBody=0;top=0;left=0;bottom=0;right=0;collapsible=0;dropTarget=0;fillColor=none;points=[[0,0.5],[1,0.5]];portConstraint=eastwest;strokeColor=inherit;fontSize=16;" vertex="1" parent="ijFXuitJDZCYeXIuiVJV-213">
          <mxGeometry y="30" width="310" height="30" as="geometry" />
        </mxCell>
        <mxCell id="ijFXuitJDZCYeXIuiVJV-215" value="1" style="shape=partialRectangle;html=1;whiteSpace=wrap;connectable=0;fillColor=#f5f5f5;top=0;left=0;bottom=0;right=0;overflow=hidden;pointerEvents=1;strokeColor=#666666;fontSize=16;fontColor=#333333;" vertex="1" parent="ijFXuitJDZCYeXIuiVJV-214">
          <mxGeometry width="69" height="30" as="geometry">
            <mxRectangle width="69" height="30" as="alternateBounds" />
          </mxGeometry>
        </mxCell>
        <mxCell id="ijFXuitJDZCYeXIuiVJV-216" value="glbsdl_Ep0" style="shape=partialRectangle;html=1;whiteSpace=wrap;connectable=0;fillColor=#dae8fc;top=0;left=0;bottom=0;right=0;align=left;spacingLeft=6;overflow=hidden;strokeColor=#6c8ebf;fontSize=16;" vertex="1" parent="ijFXuitJDZCYeXIuiVJV-214">
          <mxGeometry x="69" width="241" height="30" as="geometry">
            <mxRectangle width="241" height="30" as="alternateBounds" />
          </mxGeometry>
        </mxCell>
        <mxCell id="ijFXuitJDZCYeXIuiVJV-217" value="" style="shape=tableRow;horizontal=0;startSize=0;swimlaneHead=0;swimlaneBody=0;top=0;left=0;bottom=0;right=0;collapsible=0;dropTarget=0;fillColor=none;points=[[0,0.5],[1,0.5]];portConstraint=eastwest;strokeColor=inherit;fontSize=16;" vertex="1" parent="ijFXuitJDZCYeXIuiVJV-213">
          <mxGeometry y="60" width="310" height="30" as="geometry" />
        </mxCell>
        <mxCell id="ijFXuitJDZCYeXIuiVJV-218" value="2" style="shape=partialRectangle;html=1;whiteSpace=wrap;connectable=0;fillColor=#f5f5f5;top=0;left=0;bottom=0;right=0;overflow=hidden;strokeColor=#666666;fontSize=16;fontColor=#333333;" vertex="1" parent="ijFXuitJDZCYeXIuiVJV-217">
          <mxGeometry width="69" height="30" as="geometry">
            <mxRectangle width="69" height="30" as="alternateBounds" />
          </mxGeometry>
        </mxCell>
        <mxCell id="ijFXuitJDZCYeXIuiVJV-219" value="glbsdl_Ep4" style="shape=partialRectangle;html=1;whiteSpace=wrap;connectable=0;fillColor=#dae8fc;top=0;left=0;bottom=0;right=0;align=left;spacingLeft=6;overflow=hidden;strokeColor=#6c8ebf;fontSize=16;" vertex="1" parent="ijFXuitJDZCYeXIuiVJV-217">
          <mxGeometry x="69" width="241" height="30" as="geometry">
            <mxRectangle width="241" height="30" as="alternateBounds" />
          </mxGeometry>
        </mxCell>
        <mxCell id="ijFXuitJDZCYeXIuiVJV-220" value="CAT2" style="shape=table;startSize=30;container=1;collapsible=0;childLayout=tableLayout;strokeColor=#666666;fontSize=16;fontStyle=1;fillColor=#f5f5f5;fontColor=#333333;" vertex="1" parent="1">
          <mxGeometry x="730" y="70" width="680" height="645" as="geometry" />
        </mxCell>
        <mxCell id="ijFXuitJDZCYeXIuiVJV-221" value="" style="shape=tableRow;horizontal=0;startSize=0;swimlaneHead=0;swimlaneBody=0;strokeColor=inherit;top=0;left=0;bottom=0;right=0;collapsible=0;dropTarget=0;fillColor=none;points=[[0,0.5],[1,0.5]];portConstraint=eastwest;fontSize=16;" vertex="1" parent="ijFXuitJDZCYeXIuiVJV-220">
          <mxGeometry y="30" width="680" height="63" as="geometry" />
        </mxCell>
        <mxCell id="ijFXuitJDZCYeXIuiVJV-222" value="TASKS" style="shape=partialRectangle;html=1;whiteSpace=wrap;connectable=0;strokeColor=#666666;overflow=hidden;fillColor=#f5f5f5;top=0;left=0;bottom=0;right=0;pointerEvents=1;fontSize=16;fontStyle=1;fontColor=#333333;" vertex="1" parent="ijFXuitJDZCYeXIuiVJV-221">
          <mxGeometry width="230" height="63" as="geometry">
            <mxRectangle width="230" height="63" as="alternateBounds" />
          </mxGeometry>
        </mxCell>
        <mxCell id="ijFXuitJDZCYeXIuiVJV-223" value="" style="shape=partialRectangle;html=1;whiteSpace=wrap;connectable=0;strokeColor=#666666;overflow=hidden;fillColor=#f5f5f5;top=0;left=0;bottom=0;right=0;pointerEvents=1;fontSize=16;fontStyle=1;fontColor=#333333;" vertex="1" parent="ijFXuitJDZCYeXIuiVJV-221">
          <mxGeometry x="230" width="170" height="63" as="geometry">
            <mxRectangle width="170" height="63" as="alternateBounds" />
          </mxGeometry>
        </mxCell>
        <mxCell id="ijFXuitJDZCYeXIuiVJV-224" value="" style="shape=partialRectangle;html=1;whiteSpace=wrap;connectable=0;strokeColor=#666666;overflow=hidden;fillColor=#f5f5f5;top=0;left=0;bottom=0;right=0;pointerEvents=1;fontSize=16;fontStyle=1;fontColor=#333333;" vertex="1" parent="ijFXuitJDZCYeXIuiVJV-221">
          <mxGeometry x="400" width="280" height="63" as="geometry">
            <mxRectangle width="280" height="63" as="alternateBounds" />
          </mxGeometry>
        </mxCell>
        <mxCell id="ijFXuitJDZCYeXIuiVJV-225" value="" style="shape=tableRow;horizontal=0;startSize=0;swimlaneHead=0;swimlaneBody=0;strokeColor=inherit;top=0;left=0;bottom=0;right=0;collapsible=0;dropTarget=0;fillColor=none;points=[[0,0.5],[1,0.5]];portConstraint=eastwest;fontSize=16;" vertex="1" parent="ijFXuitJDZCYeXIuiVJV-220">
          <mxGeometry y="93" width="680" height="63" as="geometry" />
        </mxCell>
        <mxCell id="ijFXuitJDZCYeXIuiVJV-226" value="TASK_2KHZ" style="shape=partialRectangle;html=1;whiteSpace=wrap;connectable=0;strokeColor=#6c8ebf;overflow=hidden;fillColor=#dae8fc;top=0;left=0;bottom=0;right=0;pointerEvents=1;fontSize=16;" vertex="1" parent="ijFXuitJDZCYeXIuiVJV-225">
          <mxGeometry width="230" height="63" as="geometry">
            <mxRectangle width="230" height="63" as="alternateBounds" />
          </mxGeometry>
        </mxCell>
        <mxCell id="ijFXuitJDZCYeXIuiVJV-227" value="" style="shape=partialRectangle;html=1;whiteSpace=wrap;connectable=0;strokeColor=#6c8ebf;overflow=hidden;fillColor=#dae8fc;top=0;left=0;bottom=0;right=0;pointerEvents=1;fontSize=16;" vertex="1" parent="ijFXuitJDZCYeXIuiVJV-225">
          <mxGeometry x="230" width="170" height="63" as="geometry">
            <mxRectangle width="170" height="63" as="alternateBounds" />
          </mxGeometry>
        </mxCell>
        <mxCell id="ijFXuitJDZCYeXIuiVJV-228" value="" style="shape=partialRectangle;html=1;whiteSpace=wrap;connectable=0;strokeColor=#6c8ebf;overflow=hidden;fillColor=#dae8fc;top=0;left=0;bottom=0;right=0;pointerEvents=1;fontSize=16;" vertex="1" parent="ijFXuitJDZCYeXIuiVJV-225">
          <mxGeometry x="400" width="280" height="63" as="geometry">
            <mxRectangle width="280" height="63" as="alternateBounds" />
          </mxGeometry>
        </mxCell>
        <mxCell id="ijFXuitJDZCYeXIuiVJV-229" value="" style="shape=tableRow;horizontal=0;startSize=0;swimlaneHead=0;swimlaneBody=0;strokeColor=inherit;top=0;left=0;bottom=0;right=0;collapsible=0;dropTarget=0;fillColor=none;points=[[0,0.5],[1,0.5]];portConstraint=eastwest;fontSize=16;" vertex="1" parent="ijFXuitJDZCYeXIuiVJV-220">
          <mxGeometry y="156" width="680" height="64" as="geometry" />
        </mxCell>
        <mxCell id="ijFXuitJDZCYeXIuiVJV-230" value="TASK_1KHZ" style="shape=partialRectangle;html=1;whiteSpace=wrap;connectable=0;strokeColor=#6c8ebf;overflow=hidden;fillColor=#dae8fc;top=0;left=0;bottom=0;right=0;pointerEvents=1;fontSize=16;" vertex="1" parent="ijFXuitJDZCYeXIuiVJV-229">
          <mxGeometry width="230" height="64" as="geometry">
            <mxRectangle width="230" height="64" as="alternateBounds" />
          </mxGeometry>
        </mxCell>
        <mxCell id="ijFXuitJDZCYeXIuiVJV-231" value="" style="shape=partialRectangle;html=1;whiteSpace=wrap;connectable=0;strokeColor=#6c8ebf;overflow=hidden;fillColor=#dae8fc;top=0;left=0;bottom=0;right=0;pointerEvents=1;fontSize=16;" vertex="1" parent="ijFXuitJDZCYeXIuiVJV-229">
          <mxGeometry x="230" width="170" height="64" as="geometry">
            <mxRectangle width="170" height="64" as="alternateBounds" />
          </mxGeometry>
        </mxCell>
        <mxCell id="ijFXuitJDZCYeXIuiVJV-232" value="" style="shape=partialRectangle;html=1;whiteSpace=wrap;connectable=0;strokeColor=#6c8ebf;overflow=hidden;fillColor=#dae8fc;top=0;left=0;bottom=0;right=0;pointerEvents=1;fontSize=16;" vertex="1" parent="ijFXuitJDZCYeXIuiVJV-229">
          <mxGeometry x="400" width="280" height="64" as="geometry">
            <mxRectangle width="280" height="64" as="alternateBounds" />
          </mxGeometry>
        </mxCell>
        <mxCell id="ijFXuitJDZCYeXIuiVJV-233" value="" style="shape=tableRow;horizontal=0;startSize=0;swimlaneHead=0;swimlaneBody=0;strokeColor=inherit;top=0;left=0;bottom=0;right=0;collapsible=0;dropTarget=0;fillColor=none;points=[[0,0.5],[1,0.5]];portConstraint=eastwest;fontSize=16;" vertex="1" parent="ijFXuitJDZCYeXIuiVJV-220">
          <mxGeometry y="220" width="680" height="63" as="geometry" />
        </mxCell>
        <mxCell id="ijFXuitJDZCYeXIuiVJV-234" value="RUN_SCHEDULE_OS_TICK" style="shape=partialRectangle;html=1;whiteSpace=wrap;connectable=0;strokeColor=#6c8ebf;overflow=hidden;fillColor=#dae8fc;top=0;left=0;bottom=0;right=0;pointerEvents=1;fontSize=16;" vertex="1" parent="ijFXuitJDZCYeXIuiVJV-233">
          <mxGeometry width="230" height="63" as="geometry">
            <mxRectangle width="230" height="63" as="alternateBounds" />
          </mxGeometry>
        </mxCell>
        <mxCell id="ijFXuitJDZCYeXIuiVJV-235" value="" style="shape=partialRectangle;html=1;whiteSpace=wrap;connectable=0;strokeColor=#6c8ebf;overflow=hidden;fillColor=#dae8fc;top=0;left=0;bottom=0;right=0;pointerEvents=1;fontSize=16;" vertex="1" parent="ijFXuitJDZCYeXIuiVJV-233">
          <mxGeometry x="230" width="170" height="63" as="geometry">
            <mxRectangle width="170" height="63" as="alternateBounds" />
          </mxGeometry>
        </mxCell>
        <mxCell id="ijFXuitJDZCYeXIuiVJV-236" value="" style="shape=partialRectangle;html=1;whiteSpace=wrap;connectable=0;strokeColor=#6c8ebf;overflow=hidden;fillColor=#dae8fc;top=0;left=0;bottom=0;right=0;pointerEvents=1;fontSize=16;" vertex="1" parent="ijFXuitJDZCYeXIuiVJV-233">
          <mxGeometry x="400" width="280" height="63" as="geometry">
            <mxRectangle width="280" height="63" as="alternateBounds" />
          </mxGeometry>
        </mxCell>
        <mxCell id="ijFXuitJDZCYeXIuiVJV-237" value="" style="shape=tableRow;horizontal=0;startSize=0;swimlaneHead=0;swimlaneBody=0;strokeColor=inherit;top=0;left=0;bottom=0;right=0;collapsible=0;dropTarget=0;fillColor=none;points=[[0,0.5],[1,0.5]];portConstraint=eastwest;fontSize=16;" vertex="1" parent="ijFXuitJDZCYeXIuiVJV-220">
          <mxGeometry y="283" width="680" height="63" as="geometry" />
        </mxCell>
        <mxCell id="ijFXuitJDZCYeXIuiVJV-238" value="TASK_LOOPS" style="shape=partialRectangle;html=1;whiteSpace=wrap;connectable=0;strokeColor=#6c8ebf;overflow=hidden;fillColor=#dae8fc;top=0;left=0;bottom=0;right=0;pointerEvents=1;fontSize=16;" vertex="1" parent="ijFXuitJDZCYeXIuiVJV-237">
          <mxGeometry width="230" height="63" as="geometry">
            <mxRectangle width="230" height="63" as="alternateBounds" />
          </mxGeometry>
        </mxCell>
        <mxCell id="ijFXuitJDZCYeXIuiVJV-239" value="" style="shape=partialRectangle;html=1;whiteSpace=wrap;connectable=0;strokeColor=#6c8ebf;overflow=hidden;fillColor=#dae8fc;top=0;left=0;bottom=0;right=0;pointerEvents=1;fontSize=16;" vertex="1" parent="ijFXuitJDZCYeXIuiVJV-237">
          <mxGeometry x="230" width="170" height="63" as="geometry">
            <mxRectangle width="170" height="63" as="alternateBounds" />
          </mxGeometry>
        </mxCell>
        <mxCell id="ijFXuitJDZCYeXIuiVJV-240" value="" style="shape=partialRectangle;html=1;whiteSpace=wrap;connectable=0;strokeColor=#6c8ebf;overflow=hidden;fillColor=#dae8fc;top=0;left=0;bottom=0;right=0;pointerEvents=1;fontSize=16;" vertex="1" parent="ijFXuitJDZCYeXIuiVJV-237">
          <mxGeometry x="400" width="280" height="63" as="geometry">
            <mxRectangle width="280" height="63" as="alternateBounds" />
          </mxGeometry>
        </mxCell>
        <mxCell id="ijFXuitJDZCYeXIuiVJV-241" value="" style="shape=tableRow;horizontal=0;startSize=0;swimlaneHead=0;swimlaneBody=0;strokeColor=inherit;top=0;left=0;bottom=0;right=0;collapsible=0;dropTarget=0;fillColor=none;points=[[0,0.5],[1,0.5]];portConstraint=eastwest;fontSize=16;" vertex="1" parent="ijFXuitJDZCYeXIuiVJV-220">
          <mxGeometry y="346" width="680" height="63" as="geometry" />
        </mxCell>
        <mxCell id="ijFXuitJDZCYeXIuiVJV-242" value="TASK_DCS" style="shape=partialRectangle;html=1;whiteSpace=wrap;connectable=0;strokeColor=#d79b00;overflow=hidden;fillColor=#ffe6cc;top=0;left=0;bottom=0;right=0;pointerEvents=1;fontSize=16;" vertex="1" parent="ijFXuitJDZCYeXIuiVJV-241">
          <mxGeometry width="230" height="63" as="geometry">
            <mxRectangle width="230" height="63" as="alternateBounds" />
          </mxGeometry>
        </mxCell>
        <mxCell id="ijFXuitJDZCYeXIuiVJV-243" value="" style="shape=partialRectangle;html=1;whiteSpace=wrap;connectable=0;strokeColor=#d79b00;overflow=hidden;fillColor=#ffe6cc;top=0;left=0;bottom=0;right=0;pointerEvents=1;fontSize=16;" vertex="1" parent="ijFXuitJDZCYeXIuiVJV-241">
          <mxGeometry x="230" width="170" height="63" as="geometry">
            <mxRectangle width="170" height="63" as="alternateBounds" />
          </mxGeometry>
        </mxCell>
        <mxCell id="ijFXuitJDZCYeXIuiVJV-244" value="" style="shape=partialRectangle;html=1;whiteSpace=wrap;connectable=0;strokeColor=#d79b00;overflow=hidden;fillColor=#ffe6cc;top=0;left=0;bottom=0;right=0;pointerEvents=1;fontSize=16;" vertex="1" parent="ijFXuitJDZCYeXIuiVJV-241">
          <mxGeometry x="400" width="280" height="63" as="geometry">
            <mxRectangle width="280" height="63" as="alternateBounds" />
          </mxGeometry>
        </mxCell>
        <mxCell id="ijFXuitJDZCYeXIuiVJV-245" value="" style="shape=tableRow;horizontal=0;startSize=0;swimlaneHead=0;swimlaneBody=0;strokeColor=inherit;top=0;left=0;bottom=0;right=0;collapsible=0;dropTarget=0;fillColor=none;points=[[0,0.5],[1,0.5]];portConstraint=eastwest;fontSize=16;" vertex="1" parent="ijFXuitJDZCYeXIuiVJV-220">
          <mxGeometry y="409" width="680" height="63" as="geometry" />
        </mxCell>
        <mxCell id="ijFXuitJDZCYeXIuiVJV-246" value="TASK_IMU" style="shape=partialRectangle;html=1;whiteSpace=wrap;connectable=0;strokeColor=#d79b00;overflow=hidden;fillColor=#ffe6cc;top=0;left=0;bottom=0;right=0;pointerEvents=1;fontSize=16;" vertex="1" parent="ijFXuitJDZCYeXIuiVJV-245">
          <mxGeometry width="230" height="63" as="geometry">
            <mxRectangle width="230" height="63" as="alternateBounds" />
          </mxGeometry>
        </mxCell>
        <mxCell id="ijFXuitJDZCYeXIuiVJV-247" value="" style="shape=partialRectangle;html=1;whiteSpace=wrap;connectable=0;strokeColor=#d79b00;overflow=hidden;fillColor=#ffe6cc;top=0;left=0;bottom=0;right=0;pointerEvents=1;fontSize=16;" vertex="1" parent="ijFXuitJDZCYeXIuiVJV-245">
          <mxGeometry x="230" width="170" height="63" as="geometry">
            <mxRectangle width="170" height="63" as="alternateBounds" />
          </mxGeometry>
        </mxCell>
        <mxCell id="ijFXuitJDZCYeXIuiVJV-248" value="" style="shape=partialRectangle;html=1;whiteSpace=wrap;connectable=0;strokeColor=#d79b00;overflow=hidden;fillColor=#ffe6cc;top=0;left=0;bottom=0;right=0;pointerEvents=1;fontSize=16;" vertex="1" parent="ijFXuitJDZCYeXIuiVJV-245">
          <mxGeometry x="400" width="280" height="63" as="geometry">
            <mxRectangle width="280" height="63" as="alternateBounds" />
          </mxGeometry>
        </mxCell>
        <mxCell id="ijFXuitJDZCYeXIuiVJV-249" value="" style="shape=tableRow;horizontal=0;startSize=0;swimlaneHead=0;swimlaneBody=0;strokeColor=inherit;top=0;left=0;bottom=0;right=0;collapsible=0;dropTarget=0;fillColor=none;points=[[0,0.5],[1,0.5]];portConstraint=eastwest;fontSize=16;" vertex="1" parent="ijFXuitJDZCYeXIuiVJV-220">
          <mxGeometry y="472" width="680" height="63" as="geometry" />
        </mxCell>
        <mxCell id="ijFXuitJDZCYeXIuiVJV-250" value="TASK_DIAG" style="shape=partialRectangle;html=1;whiteSpace=wrap;connectable=0;strokeColor=#d79b00;overflow=hidden;fillColor=#ffe6cc;top=0;left=0;bottom=0;right=0;pointerEvents=1;fontSize=16;" vertex="1" parent="ijFXuitJDZCYeXIuiVJV-249">
          <mxGeometry width="230" height="63" as="geometry">
            <mxRectangle width="230" height="63" as="alternateBounds" />
          </mxGeometry>
        </mxCell>
        <mxCell id="ijFXuitJDZCYeXIuiVJV-251" value="" style="shape=partialRectangle;html=1;whiteSpace=wrap;connectable=0;strokeColor=#d79b00;overflow=hidden;fillColor=#ffe6cc;top=0;left=0;bottom=0;right=0;pointerEvents=1;fontSize=16;" vertex="1" parent="ijFXuitJDZCYeXIuiVJV-249">
          <mxGeometry x="230" width="170" height="63" as="geometry">
            <mxRectangle width="170" height="63" as="alternateBounds" />
          </mxGeometry>
        </mxCell>
        <mxCell id="ijFXuitJDZCYeXIuiVJV-252" value="" style="shape=partialRectangle;html=1;whiteSpace=wrap;connectable=0;strokeColor=#d79b00;overflow=hidden;fillColor=#ffe6cc;top=0;left=0;bottom=0;right=0;pointerEvents=1;fontSize=16;" vertex="1" parent="ijFXuitJDZCYeXIuiVJV-249">
          <mxGeometry x="400" width="280" height="63" as="geometry">
            <mxRectangle width="280" height="63" as="alternateBounds" />
          </mxGeometry>
        </mxCell>
        <mxCell id="ijFXuitJDZCYeXIuiVJV-253" value="" style="shape=tableRow;horizontal=0;startSize=0;swimlaneHead=0;swimlaneBody=0;strokeColor=inherit;top=0;left=0;bottom=0;right=0;collapsible=0;dropTarget=0;fillColor=none;points=[[0,0.5],[1,0.5]];portConstraint=eastwest;fontSize=16;" vertex="1" parent="ijFXuitJDZCYeXIuiVJV-220">
          <mxGeometry y="535" width="680" height="55" as="geometry" />
        </mxCell>
        <mxCell id="ijFXuitJDZCYeXIuiVJV-254" value="TASK_EEPROM" style="shape=partialRectangle;html=1;whiteSpace=wrap;connectable=0;strokeColor=#d79b00;overflow=hidden;fillColor=#ffe6cc;top=0;left=0;bottom=0;right=0;pointerEvents=1;fontSize=16;" vertex="1" parent="ijFXuitJDZCYeXIuiVJV-253">
          <mxGeometry width="230" height="55" as="geometry">
            <mxRectangle width="230" height="55" as="alternateBounds" />
          </mxGeometry>
        </mxCell>
        <mxCell id="ijFXuitJDZCYeXIuiVJV-255" value="" style="shape=partialRectangle;html=1;whiteSpace=wrap;connectable=0;strokeColor=#d79b00;overflow=hidden;fillColor=#ffe6cc;top=0;left=0;bottom=0;right=0;pointerEvents=1;fontSize=16;" vertex="1" parent="ijFXuitJDZCYeXIuiVJV-253">
          <mxGeometry x="230" width="170" height="55" as="geometry">
            <mxRectangle width="170" height="55" as="alternateBounds" />
          </mxGeometry>
        </mxCell>
        <mxCell id="ijFXuitJDZCYeXIuiVJV-256" value="" style="shape=partialRectangle;html=1;whiteSpace=wrap;connectable=0;strokeColor=#d79b00;overflow=hidden;fillColor=#ffe6cc;top=0;left=0;bottom=0;right=0;pointerEvents=1;fontSize=16;" vertex="1" parent="ijFXuitJDZCYeXIuiVJV-253">
          <mxGeometry x="400" width="280" height="55" as="geometry">
            <mxRectangle width="280" height="55" as="alternateBounds" />
          </mxGeometry>
        </mxCell>
        <mxCell id="ijFXuitJDZCYeXIuiVJV-257" value="" style="shape=tableRow;horizontal=0;startSize=0;swimlaneHead=0;swimlaneBody=0;strokeColor=inherit;top=0;left=0;bottom=0;right=0;collapsible=0;dropTarget=0;fillColor=none;points=[[0,0.5],[1,0.5]];portConstraint=eastwest;fontSize=16;" vertex="1" parent="ijFXuitJDZCYeXIuiVJV-220">
          <mxGeometry y="590" width="680" height="55" as="geometry" />
        </mxCell>
        <mxCell id="ijFXuitJDZCYeXIuiVJV-258" value="TASK_PIB" style="shape=partialRectangle;html=1;whiteSpace=wrap;connectable=0;strokeColor=#d79b00;overflow=hidden;fillColor=#ffe6cc;top=0;left=0;bottom=0;right=0;pointerEvents=1;fontSize=16;" vertex="1" parent="ijFXuitJDZCYeXIuiVJV-257">
          <mxGeometry width="230" height="55" as="geometry">
            <mxRectangle width="230" height="55" as="alternateBounds" />
          </mxGeometry>
        </mxCell>
        <mxCell id="ijFXuitJDZCYeXIuiVJV-259" value="" style="shape=partialRectangle;html=1;whiteSpace=wrap;connectable=0;strokeColor=#d79b00;overflow=hidden;fillColor=#ffe6cc;top=0;left=0;bottom=0;right=0;pointerEvents=1;fontSize=16;" vertex="1" parent="ijFXuitJDZCYeXIuiVJV-257">
          <mxGeometry x="230" width="170" height="55" as="geometry">
            <mxRectangle width="170" height="55" as="alternateBounds" />
          </mxGeometry>
        </mxCell>
        <mxCell id="ijFXuitJDZCYeXIuiVJV-260" value="" style="shape=partialRectangle;html=1;whiteSpace=wrap;connectable=0;strokeColor=#d79b00;overflow=hidden;fillColor=#ffe6cc;top=0;left=0;bottom=0;right=0;pointerEvents=1;fontSize=16;" vertex="1" parent="ijFXuitJDZCYeXIuiVJV-257">
          <mxGeometry x="400" width="280" height="55" as="geometry">
            <mxRectangle width="280" height="55" as="alternateBounds" />
          </mxGeometry>
        </mxCell>
      </root>
    </mxGraphModel>
  </diagram>
</mxfile>
